<?xml version="1.0"?>
<svg xmlns="http://www.w3.org/2000/svg" xmlns:lc="https://librecad.org" xmlns:xlink="http://www.w3.org/1999/xlink" width="64" height="64" viewBox="0 0 2 2">
    <g lc:layername="0" lc:is_locked="false" lc:is_construction="false" fill="none" stroke="#00FF00" stroke-width="0.02">
        <circle cx="1" cy="1" r="1"/>
        <path d="M0.3,1 A0.44957003,0.44957003 0 0,0 0.7,0.3 "/>
        <path d="M1,0.3 A0.44957003,0.44957003 0 0,0 1.7,0.7 "/>
        <path d="M1.8,1.2 A0.42107897,0.42107897 0 0,0 1.2,1.7 "/>
        <path d="M0.9,1.8 A0.42107897,0.42107897 0 0,0 0.3,1.3 "/>
        <circle cx="1" cy="1" r="0.1"/>
        <path d="M0.50502525,0.50502525 A0.44957003,0.44957003 0 0,0 1.28284271,0.29289322 "/>
        <path d="M1.49497475,0.50502525 A0.44957003,0.44957003 0 0,0 1.70710678,1.28284271 "/>
        <path d="M1.42426407,1.70710678 A0.42107897,0.42107897 0 0,0 0.64644661,1.6363961 "/>
        <path d="M0.3636039,1.49497475 A0.42107897,0.42107897 0 0,0 0.29289322,0.71715729 "/>
    </g>
</svg>
